<svg version="1.0" xmlns="http://www.w3.org/2000/svg"
 viewBox="0 0 1280 855"
 preserveAspectRatio="xMidYMid meet">
<g transform="translate(0.000000,855.000000) scale(0.100000,-0.100000)"
fill="#f5f5f0" stroke="none">
<path d="M3535 8540 c-148 -23 -309 -85 -427 -164 -78 -51 -473 -412 -541
-492 -118 -141 -155 -259 -137 -436 36 -358 215 -719 580 -1173 53 -66 409
-523 791 -1015 451 -580 739 -960 819 -1080 67 -102 123 -186 124 -187 1 -1
879 74 883 76 3 2 -485 722 -534 786 -29 39 -89 117 -133 175 -168 220 -248
380 -257 518 -9 135 30 249 171 491 224 385 306 625 306 895 0 430 -175 827
-515 1171 -225 227 -461 364 -727 421 -88 19 -319 27 -403 14z"/>
<path d="M7605 4004 c-1876 -195 -3417 -359 -3425 -364 -48 -31 -123 -49 -335
-79 -353 -50 -1240 -115 -2130 -156 -404 -18 -554 -29 -735 -56 -314 -45 -550
-106 -713 -183 -136 -64 -169 -102 -210 -246 -41 -144 -52 -267 -52 -605 0
-310 0 -310 28 -398 50 -162 117 -270 246 -397 353 -347 974 -524 1695 -481
324 18 551 57 786 133 337 109 581 258 805 489 173 179 287 359 408 645 35 83
78 172 95 197 65 94 246 202 457 274 l110 37 275 1 c235 1 394 10 1095 63 451
34 1254 93 1785 132 531 39 1271 93 1645 120 2128 156 3019 221 3178 232 97 6
177 16 177 22 0 19 -409 415 -511 493 -236 183 -480 311 -749 394 -133 42
-329 80 -430 84 -62 3 -993 -91 -3495 -351z"/>
<path d="M6067 2610 c-241 -21 -440 -40 -443 -43 -3 -2 347 -581 778 -1285
l783 -1281 598 -1 598 0 -103 153 c-57 83 -461 680 -897 1325 l-793 1172 -41
-1 c-23 -1 -239 -18 -480 -39z"/>
</g>
</svg>
