<svg width="162" height="47" viewBox="0 0 162 47" fill="none" xmlns="http://www.w3.org/2000/svg">
<path d="M1.89453 38V9.25H8.24219L17.2852 31.4375L26.0938 9.25H32.3242V38H27.8711V15.5391L19.0234 38H15.332L6.30859 15.7148V38H1.89453ZM46.0742 38.4688C42.819 38.4818 40.1432 37.4401 38.0469 35.3438C35.9635 33.2474 34.9219 30.5586 34.9219 27.2773C34.9219 25.1029 35.3906 23.1628 36.3281 21.457C37.2786 19.7383 38.6003 18.4102 40.293 17.4727C41.9987 16.5221 43.9258 16.0469 46.0742 16.0469C48.2357 16.0469 50.1693 16.5221 51.875 17.4727C53.5807 18.4102 54.9089 19.7383 55.8594 21.457C56.8099 23.1628 57.2852 25.1029 57.2852 27.2773C57.2852 29.4388 56.8099 31.3724 55.8594 33.0781C54.9089 34.7839 53.5807 36.112 51.875 37.0625C50.1693 38 48.2357 38.4688 46.0742 38.4688ZM39.5312 27.2773C39.5312 29.3997 40.1302 31.1185 41.3281 32.4336C42.5391 33.7487 44.1211 34.4062 46.0742 34.4062C48.0534 34.4062 49.6484 33.7487 50.8594 32.4336C52.0703 31.1185 52.6693 29.3997 52.6562 27.2773C52.6693 25.1289 52.0703 23.3971 50.8594 22.082C49.6484 20.7539 48.0534 20.0964 46.0742 20.1094C44.1081 20.0964 42.5195 20.7539 41.3086 22.082C40.1107 23.3971 39.5182 25.1289 39.5312 27.2773ZM59.7656 38V16.5156H63.9258V19.2695C64.5247 18.2539 65.3255 17.4661 66.3281 16.9062C67.3307 16.3464 68.4505 16.0729 69.6875 16.0859V20.2266C67.9167 20.2005 66.5365 20.7083 65.5469 21.75C64.5573 22.7786 64.0625 24.224 64.0625 26.0859V38H59.7656ZM82.6172 41.75C82.0052 43.4427 81.1654 44.6992 80.0977 45.5195C79.0299 46.3529 77.6758 46.7695 76.0352 46.7695H72.5391V42.8242H75.625C76.3802 42.8242 76.9922 42.6224 77.4609 42.2188C77.9427 41.8151 78.3398 41.1836 78.6523 40.3242L79.4922 38.0195L71.0352 16.5156H75.957L81.7383 32.3359L86.9922 16.5156H91.7188L82.6172 41.75Z" fill="black"/>
<path d="M97.2188 38V20.3047H93.3516V16.5156H97.2188V11.2617H101.535V16.5156H105.422V20.3047H101.535V38H97.2188ZM116.223 38.4297C113.176 38.4297 110.676 37.3815 108.723 35.2852C106.77 33.1758 105.799 30.487 105.812 27.2188C105.812 25.0703 106.255 23.1432 107.141 21.4375C108.039 19.7318 109.283 18.4102 110.871 17.4727C112.473 16.5221 114.283 16.0469 116.301 16.0469C117.733 16.0339 119.094 16.3203 120.383 16.9062C121.672 17.4922 122.714 18.2865 123.508 19.2891V16.5156H127.941V38H123.527L123.547 35.0312C122.661 36.0859 121.561 36.9193 120.246 37.5312C118.931 38.1302 117.59 38.4297 116.223 38.4297ZM112.18 21.9844C111.008 23.3125 110.422 25.0573 110.422 27.2188C110.422 29.3802 111.008 31.1315 112.18 32.4727C113.365 33.8008 114.914 34.4648 116.828 34.4648C118.742 34.4648 120.363 33.7878 121.691 32.4336C123.033 31.0664 123.71 29.3281 123.723 27.2188C123.723 25.1094 123.052 23.3776 121.711 22.0234C120.383 20.6562 118.755 19.9727 116.828 19.9727C114.914 19.9727 113.365 20.6432 112.18 21.9844ZM135.988 8.80078V38H131.555V8.80078H135.988ZM149.641 38.5273C147.518 38.5273 145.611 38.0586 143.918 37.1211C142.225 36.1836 140.897 34.8555 139.934 33.1367C138.983 31.418 138.508 29.4648 138.508 27.2773C138.508 25.7018 138.801 24.2174 139.387 22.8242C139.973 21.431 140.76 20.2396 141.75 19.25C142.74 18.2604 143.918 17.4792 145.285 16.9062C146.652 16.3333 148.104 16.0469 149.641 16.0469C153.117 16.0599 155.891 17.2188 157.961 19.5234C160.044 21.8281 160.91 24.7969 160.559 28.4297H143.117C143.208 30.2656 143.872 31.776 145.109 32.9609C146.346 34.1328 147.87 34.7122 149.68 34.6992C151.151 34.6862 152.427 34.3346 153.508 33.6445C154.589 32.9414 155.324 32.0234 155.715 30.8906H160.383C159.849 33.1823 158.605 35.0312 156.652 36.4375C154.712 37.8307 152.375 38.5273 149.641 38.5273ZM143.234 25.1289H155.91C155.754 23.5664 155.103 22.2969 153.957 21.3203C152.811 20.3438 151.398 19.849 149.719 19.8359C148.104 19.8359 146.691 20.3242 145.48 21.3008C144.283 22.2773 143.534 23.5534 143.234 25.1289Z" fill="#C22626"/>
</svg>
